name analog
datacolumns 19
datarows 23
range 0.0 0.011
endheader
time	ground_force_vx	ground_force_vy	ground_force_vz	ground_force_px	ground_force_py	ground_force_pz	l_ground_force_vx	l_ground_force_vy	l_ground_force_vz	l_ground_force_px	l_ground_force_py	l_ground_force_pz	ground_torque_x	ground_torque_y	ground_torque_z	l_ground_torque_x	l_ground_torque_y	l_ground_torque_z
0.0	-0.0	-0.0	-0.0	2.963000774383545	31.792726516723636	-358.2101745605469	-3.215049266815185	-32.49666976928711	-372.5334777832031	-0.0	-0.0	-0.0	-0.0	-0.0	-0.0	106469.0703125	-50081.2421875	657.3795776367188
0.0005	-0.0	-0.0	-0.0	3.433357715606689	32.30603790283203	-359.25994873046875	-3.6828787326812735	-32.387168884277344	-373.86767578125	-0.0	-0.0	-0.0	-0.0	-0.0	-0.0	106395.8515625	-50267.234375	731.6790771484375
0.001	-0.0	-0.0	-0.0	2.7461459636688232	32.35667037963867	-358.39166259765625	-3.23142409324646	-32.52640914916992	-374.5652160644531	-0.0	-0.0	-0.0	-0.0	-0.0	-0.0	106636.1328125	-50095.83203125	677.1669311523438
0.0015	-0.0	-0.0	-0.0	3.10279393196106	32.24129104614258	-358.468994140625	-3.236716985702514	-32.569236755371094	-374.0359191894531	-0.0	-0.0	-0.0	-0.0	-0.0	-0.0	106738.0625	-50085.4140625	664.4874877929688
0.002	-0.0	-0.0	-0.0	2.787309169769287	32.18022918701172	-357.8575439453125	-3.658732652664185	-32.52621841430664	-372.6205139160156	-0.0	-0.0	-0.0	-0.0	-0.0	-0.0	106650.8046875	-50324.45703125	626.5203857421875
0.0025	-0.0	-0.0	-0.0	3.322611093521118	32.17607879638672	-357.1513366699219	-3.301734209060669	-32.06077575683594	-373.251708984375	-0.0	-0.0	-0.0	-0.0	-0.0	-0.0	106559.5390625	-50188.23828125	739.0756225585938
0.003	-0.0	-0.0	-0.0	2.587104797363281	31.57576942443848	-356.5316772460937	-3.2606313228607178	-32.2569580078125	-372.6300659179688	-0.0	-0.0	-0.0	-0.0	-0.0	-0.0	106553.8515625	-50085.3515625	686.251708984375
0.0035	-0.0	-0.0	-0.0	2.9893765449523926	31.728775024414062	-357.1450500488281	-3.2389047145843506	-32.433746337890625	-372.3739929199219	-0.0	-0.0	-0.0	-0.0	-0.0	-0.0	106314.078125	-50303.8984375	739.6001586914062
0.004	-0.0	-0.0	-0.0	2.7435996532440186	31.86336708068848	-356.44537353515625	-3.548431396484375	-32.41228485107422	-372.9794616699219	-0.0	-0.0	-0.0	-0.0	-0.0	-0.0	106429.3203125	-50130.76171875	595.8685913085938
0.0045000000000000005	-0.0	-0.0	-0.0	3.075737476348877	31.999162673950195	-356.2716064453125	-3.704081535339356	-32.70069885253906	-371.7671813964844	-0.0	-0.0	-0.0	-0.0	-0.0	-0.0	106728.421875	-49993.609375	633.3014526367188
0.005	-0.0	-0.0	-0.0	2.6531167030334477	31.620502471923828	-356.63409423828125	-3.1717782020568848	-32.279380798339844	-373.51220703125	-0.0	-0.0	-0.0	-0.0	-0.0	-0.0	106406.3515625	-50327.015625	626.5844116210938
0.0055	-0.0	-0.0	-0.0	2.7875561714172363	31.66330337524414	-356.4500732421875	-3.237260580062866	-32.32573699951172	-372.8079833984375	-0.0	-0.0	-0.0	-0.0	-0.0	-0.0	106574.03125	-50024.7265625	634.337158203125
0.006	-0.0	-0.0	-0.0	2.78759503364563	31.687257766723636	-356.2748718261719	-2.792572259902954	-32.3463134765625	-372.8030700683594	-0.0	-0.0	-0.0	-0.0	-0.0	-0.0	106394.3203125	-50233.6640625	635.0921020507812
0.006500000000000001	-0.0	-0.0	-0.0	2.788412570953369	31.66415786743164	-354.5926513671875	-3.503547430038452	-32.39118957519531	-372.721435546875	-0.0	-0.0	-0.0	-0.0	-0.0	-0.0	106511.6171875	-50374.234375	700.8643798828125
0.007	-0.0	-0.0	-0.0	2.564974784851074	31.75253295898437	-355.82745361328125	-3.659077644348145	-32.48054122924805	-373.0704345703125	-0.0	-0.0	-0.0	-0.0	-0.0	-0.0	106500.4921875	-50091.89453125	552.7643432617188
0.0075	-0.0	-0.0	-0.0	2.6546809673309326	31.530014038085938	-356.1851501464844	-3.547616958618164	-32.104530334472656	-372.6344604492188	-0.0	-0.0	-0.0	-0.0	-0.0	-0.0	106231.078125	-49969.52734375	760.8598022460938
0.008	-0.0	-0.0	-0.0	2.096257209777832	31.23963737487793	-355.3869323730469	-3.792551040649414	-32.52495574951172	-372.8072814941406	-0.0	-0.0	-0.0	-0.0	-0.0	-0.0	106270.9765625	-49968.18359375	597.2645263671875
0.0085	-0.0	-0.0	-0.0	2.609612941741944	31.82010078430176	-356.2705383300781	-3.8812355995178223	-32.171592712402344	-373.1563415527344	-0.0	-0.0	-0.0	-0.0	-0.0	-0.0	106334.6328125	-49827.82421875	537.7599487304688
0.009000000000000001	-0.0	-0.0	-0.0	2.4310755729675293	31.57465171813965	-354.94586181640625	-3.65881872177124	-32.591102600097656	-372.3710021972656	-0.0	-0.0	-0.0	-0.0	-0.0	-0.0	106258.78125	-49626.7734375	560.118896484375
0.0095	-0.0	-0.0	-0.0	2.4309589862823486	31.2178955078125	-356.00537109375	-3.725360155105591	-32.038509368896484	-371.4102783203125	-0.0	-0.0	-0.0	-0.0	-0.0	-0.0	106045.6796875	-49645.2265625	471.315185546875
0.01	-0.0	-0.0	-0.0	2.296850681304932	31.41839599609375	-354.3273620605469	-4.169548034667969	-32.148956298828125	-371.9341735839844	-0.0	-0.0	-0.0	-0.0	-0.0	-0.0	106118.3203125	-49684.3046875	478.3017883300781
0.0105	-0.0	-0.0	-0.0	2.1634292602539062	31.596281051635746	-354.5926513671875	-4.036334037780762	-32.391963958740234	-373.15570068359375	-0.0	-0.0	-0.0	-0.0	-0.0	-0.0	106050.0390625	-49865.67578125	441.2751159667969
0.011	-0.0	-0.0	-0.0	2.6758623123168945	31.575010299682617	-355.740966796875	-4.19162654876709	-32.76701354980469	-371.0613708496094	-0.0	-0.0	-0.0	-0.0	-0.0	-0.0	106283.7890625	-49772.8984375	307.6265869140625
